G04*
G04 #@! TF.GenerationSoftware,Altium Limited,Altium Designer,26.5.0 (11)*
G04*
G04 Layer_Physical_Order=1*
G04 Layer_Color=255*
G04 Board_Origin=0|0*
%FSLAX44Y44*%
%MOMM*%
G71*
G04*
G04 #@! TF.SameCoordinates,EA47702D-69AA-4C1F-8391-189F8E175B3D*
G04*
G04*
G04 #@! TF.FilePolarity,Positive*
G04*
G01*
G75*
%ADD13R,0.5200X0.5200*%
%ADD14R,3.0000X2.4800*%
%ADD15R,0.6000X0.5000*%
%ADD16R,1.9031X1.5525*%
%ADD17R,0.9582X1.0061*%
G04:AMPARAMS|DCode=18|XSize=0.6mm|YSize=1.45mm|CornerRadius=0.051mm|HoleSize=0mm|Usage=FLASHONLY|Rotation=270.000|XOffset=0mm|YOffset=0mm|HoleType=Round|Shape=RoundedRectangle|*
%AMROUNDEDRECTD18*
21,1,0.6000,1.3480,0,0,270.0*
21,1,0.4980,1.4500,0,0,270.0*
1,1,0.1020,-0.6740,-0.2490*
1,1,0.1020,-0.6740,0.2490*
1,1,0.1020,0.6740,0.2490*
1,1,0.1020,0.6740,-0.2490*
%
%ADD18ROUNDEDRECTD18*%
%ADD19C,1.2500*%
%ADD20C,1.6000*%
%ADD21R,1.6000X1.6000*%
%ADD22R,1.9000X1.9000*%
%ADD23C,1.9000*%
%ADD24C,0.2540*%
D13*
X98351Y82119D02*
D03*
X106351D02*
D03*
D14*
X74809Y71499D02*
D03*
Y125299D02*
D03*
D15*
X46990Y108030D02*
D03*
Y118030D02*
D03*
X48156Y136809D02*
D03*
Y146809D02*
D03*
D16*
X39370Y83712D02*
D03*
Y60206D02*
D03*
D17*
X123685Y81254D02*
D03*
Y67232D02*
D03*
D18*
X163086Y103327D02*
D03*
Y116027D02*
D03*
Y128727D02*
D03*
Y141427D02*
D03*
X108586Y103327D02*
D03*
Y116027D02*
D03*
Y128727D02*
D03*
Y141427D02*
D03*
D19*
X165100Y164669D02*
D03*
X139700D02*
D03*
D20*
X94820Y170962D02*
D03*
D21*
Y196362D02*
D03*
D22*
X181610Y58034D02*
D03*
D23*
X156210D02*
D03*
D24*
X80352Y181894D02*
X94820Y196362D01*
X80352Y166070D02*
Y181894D01*
Y166070D02*
X83010D01*
X107520Y183662D02*
X115492D01*
X94820Y170962D02*
X107520Y183662D01*
X179226Y60418D02*
X180340Y61531D01*
Y163656D01*
X163196Y180800D02*
X180340Y163656D01*
X118354Y180800D02*
X163196D01*
X115492Y183662D02*
X118354Y180800D01*
X77695Y166070D02*
X80352D01*
X58537Y146912D02*
X77695Y166070D01*
X48259Y146912D02*
X58537D01*
X160771Y143742D02*
X163086Y141427D01*
X48156Y146809D02*
X48259Y146912D01*
X89928Y159152D02*
X109109D01*
X124686Y174729D01*
X143867D01*
X151757Y166840D01*
Y163785D02*
Y166840D01*
Y163785D02*
X159646Y155896D01*
Y143157D02*
Y155896D01*
Y143157D02*
X161376Y141427D01*
X163086D01*
X83010Y166070D02*
X89928Y159152D01*
X165100Y164669D02*
X175260Y154509D01*
X138719Y154609D02*
Y163688D01*
X139700Y164669D01*
X112836Y128727D02*
X138719Y154609D01*
X108586Y128727D02*
X112836D01*
X175260Y123950D02*
Y154509D01*
X167336Y116027D02*
X175260Y123950D01*
X163086Y116027D02*
X167336D01*
X3810Y8890D02*
X213360D01*
X3810Y241300D02*
X213360D01*
Y8890D02*
Y241300D01*
X3810Y8890D02*
Y241300D01*
X46664Y117704D02*
X46990Y118030D01*
X46664Y116735D02*
Y117704D01*
X104336Y116027D02*
X108586D01*
X95829Y107519D02*
X104336Y116027D01*
X59800Y107519D02*
X95829D01*
X50584Y116735D02*
X59800Y107519D01*
X46664Y116735D02*
X50584D01*
X48720Y120679D02*
X49530Y121489D01*
X48720Y119260D02*
Y120679D01*
X47490Y118030D02*
X48720Y119260D01*
X46990Y118030D02*
X47490D01*
X48156Y136809D02*
X48300D01*
X49530Y135579D01*
Y121489D02*
Y135579D01*
X45720Y90062D02*
Y106800D01*
X46950Y108030D01*
X46990D01*
X39370Y83712D02*
X45720Y90062D01*
X123685Y66993D02*
X132643Y58034D01*
X156210D01*
X106351Y44255D02*
X167831D01*
X163086Y86673D02*
Y103327D01*
Y86673D02*
X176530Y73229D01*
Y63114D02*
Y73229D01*
Y63114D02*
X179070Y60574D01*
X179226Y60418D02*
X181610Y58034D01*
X57074Y44255D02*
X106351D01*
X74809Y125299D02*
X79966Y130457D01*
X106856D01*
X108586Y128727D01*
X167831Y44255D02*
X181610Y58034D01*
X106351Y44509D02*
Y82119D01*
X41123Y60206D02*
X57074Y44255D01*
X123685Y66993D02*
Y67232D01*
X122262Y112752D02*
Y113977D01*
X112836Y103327D02*
X122262Y112752D01*
X108586Y103327D02*
X112836D01*
X122262Y113977D02*
X152026Y143742D01*
X160771D01*
X126481Y84050D02*
X140681D01*
X123685Y81254D02*
X126481Y84050D01*
X161204Y130609D02*
X163086Y128727D01*
X156954Y130609D02*
X161204D01*
X148894Y122549D02*
X156954Y130609D01*
X148894Y92263D02*
Y122549D01*
X140681Y84050D02*
X148894Y92263D01*
X108586Y99593D02*
Y103327D01*
X98351Y89357D02*
X108586Y99593D01*
X98351Y82119D02*
Y89357D01*
X39370Y60206D02*
X41123D01*
X40640Y82442D02*
X63866D01*
X74809Y71499D01*
X39370Y83712D02*
X40640Y82442D01*
M02*
